<?xml version="1.0" standalone="no"?>
<!DOCTYPE svg PUBLIC "-//W3C//DTD SVG 20010904//EN"
 "http://www.w3.org/TR/2001/REC-SVG-20010904/DTD/svg10.dtd">
<svg version="1.0" xmlns="http://www.w3.org/2000/svg"
 width="300.000000pt" height="300.000000pt" viewBox="0 0 300.000000 300.000000"
 preserveAspectRatio="xMidYMid meet">

<g transform="translate(0.000000,300.000000) scale(0.100000,-0.100000)"
fill="#80D3FF" stroke="none">
<path d="M1560 2953 c-8 -2 -24 -8 -35 -13 -11 -4 -35 -13 -52 -20 -23 -9 -33
-19 -33 -34 0 -12 -11 -37 -24 -57 -35 -52 -46 -102 -46 -219 0 -58 -3 -114
-6 -126 -5 -20 -7 -20 -57 -7 -61 17 -238 10 -299 -12 -44 -15 -148 -76 -148
-86 0 -12 40 1 130 41 47 21 103 41 125 44 40 6 40 6 -10 -12 -56 -21 -148
-68 -212 -107 -39 -24 -42 -24 -52 -8 -9 16 -12 15 -42 -12 -49 -46 -117 -142
-124 -176 l-7 -31 -107 7 c-120 8 -127 5 -138 -59 -5 -33 -3 -36 30 -52 22
-10 33 -22 30 -30 -3 -8 0 -14 6 -14 26 0 8 -18 -23 -24 -44 -8 -111 -57 -131
-96 -18 -35 -5 -41 18 -7 13 18 12 10 -3 -39 -10 -33 -23 -99 -30 -145 -6 -46
-15 -118 -20 -159 -6 -41 -27 -164 -47 -272 -30 -160 -39 -195 -50 -186 -18
14 -20 11 -27 -42 -3 -25 -2 -34 2 -21 9 31 32 40 32 13 0 -11 3 -27 6 -36 4
-11 -1 -14 -24 -11 -41 5 -57 -27 -47 -92 4 -26 6 -61 4 -78 -1 -16 -3 -47 -3
-67 0 -21 -4 -38 -8 -38 -4 0 -8 -4 -8 -10 0 -5 5 -10 11 -10 19 0 38 -33 39
-65 1 -46 34 -109 74 -140 62 -48 136 -22 182 65 13 24 25 48 27 53 1 4 43 -2
93 -14 84 -21 90 -24 86 -45 -3 -19 3 -26 34 -39 104 -45 191 -52 255 -19 31
16 64 79 81 158 l13 58 85 25 c120 34 168 58 179 86 5 13 22 34 38 47 l28 22
3 -50 c3 -45 -1 -56 -33 -97 -19 -26 -34 -55 -31 -64 2 -9 8 -36 11 -61 4 -25
16 -67 26 -94 15 -40 16 -57 8 -100 -17 -89 4 -159 63 -216 28 -27 39 -30 72
-26 55 6 85 32 123 107 39 75 51 161 33 228 -11 43 -50 93 -79 102 -10 4 -16
28 -20 80 -5 67 -8 74 -28 77 -17 3 -23 10 -23 28 0 13 -6 24 -12 24 -9 0 -13
21 -13 70 0 53 3 70 14 70 10 0 12 8 8 30 -5 23 1 43 25 82 56 95 114 247 142
371 5 21 12 27 34 27 48 0 50 -7 41 -120 -29 -395 104 -751 322 -860 35 -18
67 -37 71 -43 10 -15 109 -2 196 27 88 30 146 62 137 76 -3 5 39 54 93 107
108 107 160 185 217 324 86 213 120 406 112 634 -9 235 -46 355 -164 531 -70
103 -135 167 -198 194 -29 12 -49 29 -55 45 -5 14 -16 25 -25 25 -12 0 -15 10
-13 42 2 28 -1 43 -9 44 -7 1 -17 2 -23 3 -12 1 -1 154 12 159 4 2 8 14 8 26
0 20 5 23 33 22 l32 -1 6 80 c7 93 -1 110 -62 120 -21 4 -39 10 -39 15 0 35
-726 101 -810 73z m860 -655 c37 1 70 -11 70 -25 0 -9 -6 -13 -14 -10 -70 27
-149 14 -233 -39 -28 -18 -53 -30 -56 -28 -7 7 -136 -139 -177 -201 -20 -31
-47 -78 -60 -105 -13 -28 -27 -50 -31 -50 -10 0 48 139 67 161 8 8 14 21 14
27 0 7 5 12 10 12 6 0 10 5 10 10 0 18 78 115 117 147 48 38 134 84 145 77 4
-3 8 -1 8 5 0 12 79 31 100 24 8 -3 22 -5 30 -5z m-1521 -35 c-14 -16 -44 -54
-68 -86 -24 -32 -45 -56 -48 -53 -10 10 116 166 133 166 4 0 -3 -12 -17 -27z
m1159 -27 c-29 -24 -72 -66 -96 -95 -24 -29 -55 -54 -70 -57 -15 -4 -38 -16
-51 -28 l-24 -21 19 35 c28 51 175 197 204 203 71 13 74 9 18 -37z m490 16 c3
-9 -2 -13 -14 -10 -9 1 -19 9 -22 16 -3 9 2 13 14 10 9 -1 19 -9 22 -16z
m-158 -23 c0 -8 -100 -55 -110 -52 -3 1 -14 5 -25 8 -15 5 -17 5 -6 -3 12 -8
7 -14 -25 -29 -21 -10 -70 -49 -108 -88 -37 -38 -63 -59 -56 -46 15 30 111
131 123 131 5 0 17 8 26 18 21 25 57 43 111 57 53 14 70 15 70 4z m239 -36
c13 -13 21 -26 18 -29 -3 -3 -14 3 -25 14 -11 11 -30 26 -42 32 -11 6 -18 15
-14 21 6 11 21 2 63 -38z m-274 -49 c-81 -54 -203 -188 -220 -244 -4 -13 -14
-30 -21 -38 -8 -7 -14 -20 -14 -28 0 -8 -5 -14 -12 -14 -6 0 -9 -3 -5 -6 3 -4
0 -18 -7 -33 -7 -14 -11 -32 -9 -38 3 -7 -2 -13 -9 -13 -17 0 -61 -132 -89
-263 -18 -87 -19 -88 -13 -28 17 195 124 458 245 601 45 53 150 130 177 130 9
0 -1 -12 -23 -26z m159 -30 c9 -8 16 -11 16 -5 0 13 26 4 64 -22 27 -19 28
-21 11 -33 -15 -11 -16 -16 -5 -29 7 -8 18 -15 25 -15 16 0 58 -92 53 -116 -2
-10 2 -23 9 -29 46 -36 71 -525 27 -525 -21 0 -27 -20 -10 -33 13 -11 14 -19
1 -80 -8 -38 -20 -77 -25 -88 -6 -10 -8 -19 -6 -19 9 0 -55 -173 -91 -243 -18
-37 -40 -70 -48 -74 -8 -3 -15 -12 -15 -21 0 -27 -68 -100 -101 -107 -21 -5
-29 -11 -25 -22 6 -16 -39 -63 -60 -63 -8 0 -14 7 -14 16 0 8 -5 12 -10 9 -6
-4 -8 -11 -5 -16 10 -16 -48 -9 -92 10 -90 41 -169 156 -213 311 -28 96 -42
386 -19 378 14 -5 89 27 99 42 3 4 19 11 37 14 27 6 31 5 27 -11 -3 -11 3 -30
14 -43 16 -19 24 -22 55 -16 21 4 41 15 47 26 15 29 45 25 69 -9 48 -67 95
-72 125 -13 36 73 23 160 -28 173 -37 10 -104 -35 -85 -57 6 -8 8 -14 4 -14
-8 0 -262 133 -310 162 -35 21 -12 24 25 3 14 -8 28 -14 32 -15 3 0 9 39 13
88 4 48 9 94 11 103 3 9 -2 23 -10 31 -12 12 -12 20 -2 39 10 22 19 24 89 27
71 3 77 1 77 -17 0 -11 -5 -23 -11 -26 -7 -5 -6 -12 4 -23 8 -10 18 -27 21
-39 10 -30 30 -29 51 3 16 26 16 34 -5 181 -12 85 -19 157 -16 160 8 9 13 -13
25 -107 20 -153 23 -164 32 -149 5 8 9 37 9 65 0 28 6 69 14 91 8 22 16 64 17
94 3 36 9 56 19 61 27 12 68 8 84 -8z m150 -90 c3 -8 2 -12 -4 -9 -6 3 -10 10
-10 16 0 14 7 11 14 -7z m-424 -99 c0 -10 -11 -15 -35 -15 -33 0 -43 8 -28 23
13 14 63 7 63 -8z m-1820 -13 c0 -4 -10 -13 -22 -21 -23 -14 -23 -14 -4 8 20
22 26 25 26 13z m1882 -44 c-11 -11 -52 -2 -52 11 0 4 14 6 31 3 20 -3 27 -8
21 -14z m-1752 -10 c0 -5 -18 -8 -40 -8 -32 0 -40 -4 -40 -19 0 -13 10 -20 31
-25 29 -6 31 -8 25 -38 -27 -132 -38 -242 -32 -343 5 -106 38 -274 70 -362 8
-24 11 -43 6 -43 -5 0 -56 9 -112 20 -57 11 -104 20 -105 20 -2 0 -3 9 -3 19
0 13 -8 21 -22 23 -33 4 -34 43 -3 198 14 72 30 177 35 233 23 229 39 285 91
316 28 17 99 23 99 9z m1350 -65 c-11 -17 -11 -17 -6 0 3 10 6 24 7 30 0 9 2
9 5 0 3 -7 0 -20 -6 -30z m-1052 10 c87 -15 94 -18 109 -47 8 -17 29 -46 47
-64 17 -19 27 -33 21 -32 -24 5 -34 -2 -44 -30 -6 -18 -6 -28 -1 -25 6 4 10 2
10 -4 0 -5 24 -14 53 -20 l52 -10 -64 5 -64 5 6 -37 c7 -44 13 -50 49 -59 21
-5 33 -1 51 18 14 13 31 26 39 29 7 3 21 31 31 61 19 59 93 169 126 186 11 6
28 11 38 11 13 0 9 -8 -19 -33 -44 -37 -105 -163 -162 -327 -32 -95 -106 -461
-106 -526 0 -26 -1 -27 -23 -18 -8 3 -13 13 -10 23 5 19 -19 31 -65 31 -13 0
-63 9 -112 21 l-88 21 -30 62 c-42 87 -67 175 -53 189 15 15 14 27 -3 21 -28
-11 -36 141 -8 162 16 13 16 15 0 28 -30 22 -22 186 8 186 11 0 12 4 3 19 -9
14 -9 32 2 77 l14 59 43 -3 c37 -3 42 -1 42 17 0 25 -8 25 108 4z m792 7 c13
-9 13 -11 0 -20 -12 -8 -10 -10 10 -10 20 0 22 -2 10 -10 -9 -6 -40 -7 -74 -4
-43 5 -57 4 -52 -5 5 -7 -4 -11 -26 -11 -49 0 -66 -14 -50 -40 10 -17 17 -60
10 -60 -2 0 -40 6 -86 14 -76 12 -84 12 -90 -3 -3 -9 -16 -32 -28 -51 -24 -36
-67 -161 -58 -169 2 -2 17 8 34 24 28 27 32 28 99 21 100 -9 104 -11 97 -59
-4 -21 -16 -65 -27 -96 -24 -65 -28 -93 -14 -98 11 -3 56 104 76 180 6 26 15
44 20 41 5 -3 4 -14 -2 -25 -5 -11 -9 -25 -6 -32 2 -6 -3 -18 -10 -26 -9 -8
-12 -23 -8 -38 4 -18 2 -23 -6 -17 -9 5 -10 2 -6 -10 9 -23 -23 -102 -34 -84
-5 8 -9 9 -9 2 0 -6 7 -17 15 -24 13 -11 19 -4 39 41 13 30 26 63 29 74 3 11
13 46 22 78 10 35 22 57 31 57 8 0 14 -5 14 -10 0 -18 -32 -134 -45 -165 -8
-16 -21 -49 -30 -72 -10 -24 -21 -43 -26 -43 -5 0 -9 -7 -9 -15 0 -9 -12 -34
-26 -56 -19 -31 -29 -38 -37 -30 -8 8 -8 17 -1 29 38 63 47 82 40 89 -4 4 -14
-1 -22 -12 -15 -19 -15 -19 -9 5 6 26 -22 75 -31 54 -2 -5 -21 -38 -41 -72
l-36 -61 -66 6 c-36 3 -74 10 -83 15 -14 6 -16 5 -12 -7 4 -8 1 -15 -5 -15
-20 0 -24 29 -11 98 16 93 30 133 42 126 6 -4 8 1 3 15 -3 12 0 43 8 69 12 41
40 135 54 182 2 8 -5 -1 -17 -20 -16 -27 -19 -29 -14 -10 9 36 33 80 43 80 5
0 15 15 22 32 17 42 74 105 113 126 17 8 49 19 71 23 62 10 188 10 205 -1z
m172 -27 c-8 -15 -20 -17 -64 -14 -39 3 -48 6 -33 12 11 4 14 8 6 8 -28 2 -2
12 46 20 51 7 60 2 45 -26z m144 0 c-11 -11 -17 4 -9 23 7 18 8 18 11 1 2 -10
1 -21 -2 -24z m374 0 c0 -20 -13 -53 -20 -53 -14 0 -21 32 -9 46 12 15 29 19
29 7z m-1212 -23 c17 0 22 -6 22 -24 0 -33 -10 -37 -52 -25 -45 12 -68 36 -47
50 8 5 23 7 34 4 11 -2 30 -5 43 -5z m-561 -32 c-3 -7 -5 -2 -5 12 0 14 2 19
5 13 2 -7 2 -19 0 -25z m1171 13 c12 -7 12 -12 1 -30 -18 -27 -35 -27 -42 1
-10 35 10 49 41 29z m26 -35 c-9 -15 -19 -24 -22 -22 -2 3 3 17 12 32 10 14
20 23 23 21 2 -3 -3 -17 -13 -31z m172 -16 c8 -8 3 -41 -14 -109 -21 -87 -26
-98 -43 -94 -12 4 -18 12 -15 22 2 9 10 40 16 69 8 35 17 52 27 52 12 0 13 3
5 13 -11 13 -5 57 7 57 4 0 12 -5 17 -10z m-846 -10 c12 -8 12 -10 -5 -10 -11
0 -27 5 -35 10 -12 8 -12 10 5 10 11 0 27 -5 35 -10z m73 -17 c-7 -2 -21 -2
-30 0 -10 3 -4 5 12 5 17 0 24 -2 18 -5z m-85 -21 c2 -7 -3 -12 -12 -12 -9 0
-16 7 -16 16 0 17 22 14 28 -4z m512 -2 c0 -5 -2 -10 -4 -10 -3 0 -8 5 -11 10
-3 6 -1 10 4 10 6 0 11 -4 11 -10z m-232 -7 c-10 -2 -26 -2 -35 0 -10 3 -2 5
17 5 19 0 27 -2 18 -5z m171 -20 c107 -16 115 -16 144 0 38 22 46 15 10 -8
-34 -23 -87 -22 -213 4 -120 24 -90 26 59 4z m236 -40 c-8 -60 -15 -67 -54
-58 -44 9 -43 51 2 82 52 34 60 30 52 -24z m-312 18 c9 -1 17 -8 17 -17 0 -14
-8 -16 -57 -10 -55 6 -87 21 -78 36 2 4 26 3 52 -1 26 -4 56 -8 66 -8z m-1103
-127 c-7 -47 -14 -83 -17 -80 -3 2 1 49 8 103 8 54 15 90 17 80 2 -11 -2 -57
-8 -103z m1240 91 c0 -8 -9 -15 -20 -15 -13 0 -18 5 -14 15 4 8 12 15 20 15 8
0 14 -7 14 -15z m351 -61 c-5 -21 -9 -30 -10 -19 -1 24 10 67 15 62 3 -2 0
-22 -5 -43z m-883 24 c-6 -18 -28 -21 -28 -4 0 9 7 16 16 16 9 0 14 -5 12 -12z
m1352 -88 c0 -5 -5 -10 -11 -10 -5 0 -7 5 -4 10 3 6 8 10 11 10 2 0 4 -4 4
-10z m-805 -40 c-9 -41 -17 -33 -9 9 4 17 9 30 11 27 3 -2 2 -19 -2 -36z
m1242 -22 c-2 -13 -4 -3 -4 22 0 25 2 35 4 23 2 -13 2 -33 0 -45z m-677 21 c0
-5 -4 -9 -10 -9 -5 0 -10 7 -10 16 0 8 5 12 10 9 6 -3 10 -10 10 -16z m-294
-176 c-1 -160 -3 -188 -16 -188 -19 0 -36 151 -18 172 8 9 7 13 -2 13 -9 0
-10 22 -5 88 8 95 10 102 29 102 11 0 13 -39 12 -187z m540 140 c-11 -11 -19
6 -11 24 8 17 8 17 12 0 3 -10 2 -21 -1 -24z m-119 21 c-3 -3 -12 -4 -19 -1
-8 3 -5 6 6 6 11 1 17 -2 13 -5z m-340 -36 c-3 -8 -6 -5 -6 6 -1 11 2 17 5 13
3 -3 4 -12 1 -19z m-382 -50 c-19 -57 -52 -128 -60 -128 -3 0 2 17 11 38 9 20
26 63 37 94 27 71 35 68 12 -4z m635 36 c0 -8 -4 -12 -10 -9 -5 3 -10 10 -10
16 0 5 5 9 10 9 6 0 10 -7 10 -16z m620 -71 c-34 -216 -145 -449 -266 -563
l-48 -45 45 50 c125 139 216 334 256 549 21 113 31 120 13 9z m-412 46 c-2 -6
-8 -10 -13 -10 -5 0 -11 4 -13 10 -2 6 4 11 13 11 9 0 15 -5 13 -11z m-1028
-176 c-1 -14 -27 -43 -39 -43 -8 0 -5 9 6 25 18 24 33 32 33 18z m-1040 -42
c0 -6 -4 -13 -10 -16 -5 -3 -10 1 -10 9 0 9 5 16 10 16 6 0 10 -4 10 -9z m727
-43 c-3 -7 -5 -2 -5 12 0 14 2 19 5 13 2 -7 2 -19 0 -25z m161 24 c17 -2 22
-8 22 -32 0 -35 10 -38 28 -9 7 12 16 18 19 15 9 -8 -27 -46 -44 -46 -7 0 -13
7 -13 15 0 8 -4 15 -9 15 -5 0 -14 -7 -21 -15 -7 -8 -21 -15 -31 -15 -11 0
-19 -5 -19 -11 0 -5 -5 -7 -11 -3 -6 4 -8 20 -4 40 4 26 3 34 -9 34 -8 0 -17
4 -20 9 -5 8 24 8 112 3z m132 -49 c25 -22 26 -33 2 -26 -12 3 -22 -3 -28 -18
-10 -22 -11 -22 -16 -3 -5 19 6 64 17 64 2 0 14 -8 25 -17z m-303 -25 c-3 -8
-6 -5 -6 6 -1 11 2 17 5 13 3 -3 4 -12 1 -19z m406 -29 c8 -28 -8 -23 -24 9
-23 45 -23 48 -1 29 11 -10 22 -27 25 -38z m442 -116 c-9 -24 -22 -13 -35 30
-27 89 -29 107 -11 116 14 8 19 -1 34 -62 9 -39 15 -77 12 -84z m-831 40 c-8
-48 -14 -94 -14 -100 0 -7 -11 -13 -25 -13 -24 0 -25 2 -20 43 l5 42 -14 -40
c-7 -22 -16 -39 -19 -37 -4 1 -11 2 -15 2 -5 0 -7 14 -4 30 2 17 10 30 18 30
7 0 18 8 23 18 6 9 11 13 12 7 1 -5 5 4 10 20 6 21 7 9 4 -40 l-4 -70 21 102
c11 57 23 101 27 98 5 -2 2 -44 -5 -92z m42 52 c-21 -16 -32 -13 -21 4 3 6 14
11 23 11 15 -1 15 -2 -2 -15z m174 -4 c0 -19 -22 -23 -38 -7 -15 15 -14 16 11
16 15 0 27 -4 27 -9z m-769 -41 c134 -26 156 -33 172 -54 30 -41 131 -111 195
-135 33 -13 63 -29 66 -37 3 -7 0 -40 -6 -74 -8 -46 -14 -60 -27 -60 -10 0
-86 15 -170 34 -83 19 -161 32 -173 28 -16 -4 -19 -2 -13 8 6 10 2 11 -19 6
-20 -5 -26 -4 -20 5 5 9 0 10 -19 5 -14 -3 -36 -1 -49 4 l-23 11 24 -5 c23 -5
23 -3 19 48 -6 71 -36 125 -81 149 -33 17 -37 23 -37 58 0 21 2 39 3 39 2 0
73 -13 158 -30z m-191 -20 c0 -33 -3 -40 -20 -40 -25 0 -27 36 -3 62 22 25 23
24 23 -22z m914 19 c-7 -13 -120 -69 -136 -69 -7 1 5 10 26 20 21 11 53 31 70
44 29 23 53 26 40 5z m153 -51 c-2 -13 -4 -3 -4 22 0 25 2 35 4 23 2 -13 2
-33 0 -45z m-1140 -25 c-3 -10 -5 -2 -5 17 0 19 2 27 5 18 2 -10 2 -26 0 -35z
m-27 -28 c0 -13 -5 -27 -11 -30 -15 -10 -17 -4 -12 32 6 37 23 35 23 -2z
m1723 -37 c33 -74 17 -85 -23 -16 -31 54 -35 70 -23 82 9 9 17 -1 46 -66z
m-1595 -22 c2 -10 -1 -23 -6 -28 -12 -12 -36 27 -27 43 10 15 29 5 33 -15z
m-127 -33 c-12 -20 -14 -14 -5 12 4 9 9 14 11 11 3 -2 0 -13 -6 -23z m1242
-28 c-15 -19 -29 -32 -32 -29 -4 4 48 64 56 64 2 0 -9 -16 -24 -35z m-103 -32
c1 -21 5 -58 10 -83 5 -29 5 -49 -2 -57 -17 -21 -26 -6 -38 65 -10 52 -10 74
-1 90 18 33 31 26 31 -15z m60 -32 c7 -38 -2 -61 -22 -61 -4 0 -8 28 -8 62 0
70 17 70 30 -1z m596 27 c28 -30 17 -30 -18 0 -16 13 -24 32 -15 32 2 0 16
-14 33 -32z m-523 -40 c-6 -12 -31 -10 -38 2 -4 6 1 23 11 38 l18 27 6 -30 c4
-16 5 -33 3 -37z m-1028 12 c53 -15 59 -18 25 -14 -50 7 -133 32 -110 33 8 0
47 -8 85 -19z m102 -26 c-3 -3 -12 -4 -19 -1 -8 3 -5 6 6 6 11 1 17 -2 13 -5z
m40 -10 c-3 -3 -12 -4 -19 -1 -8 3 -5 6 6 6 11 1 17 -2 13 -5z m898 -112 c-5
-14 -7 -14 -15 -2 -5 9 -4 20 3 28 14 17 22 0 12 -26z m621 10 c-9 -9 -37 8
-31 18 5 8 11 7 21 -1 8 -6 12 -14 10 -17z m-656 -42 c0 -5 -5 -10 -11 -10 -5
0 -7 5 -4 10 3 6 8 10 11 10 2 0 4 -4 4 -10z m-14 -98 c17 -11 23 -60 8 -79
-11 -17 -13 -16 -23 10 -13 33 -15 77 -3 77 4 0 12 -4 18 -8z m89 -12 c3 -5
-1 -10 -9 -10 -9 0 -16 5 -16 10 0 6 4 10 9 10 6 0 13 -4 16 -10z m-25 -64 c0
-3 -4 -8 -10 -11 -5 -3 -10 -1 -10 4 0 6 5 11 10 11 6 0 10 -2 10 -4z"/>
<path d="M2153 1773 c15 -2 39 -2 55 0 15 2 2 4 -28 4 -30 0 -43 -2 -27 -4z"/>
<path d="M2121 1526 c2 -2 15 -9 29 -16 23 -12 24 -12 11 3 -7 10 -20 17 -29
17 -8 0 -13 -2 -11 -4z"/>
<path d="M2190 1487 c3 -2 25 -15 50 -27 l44 -22 -16 23 c-10 16 -27 25 -49
27 -19 2 -32 2 -29 -1z"/>
<path d="M2050 1305 l-25 -14 28 -1 c17 0 27 5 27 15 0 18 1 18 -30 0z"/>
<path d="M1061 1334 c0 -11 3 -14 6 -6 3 7 2 16 -1 19 -3 4 -6 -2 -5 -13z"/>
<path d="M1041 1234 c0 -11 3 -14 6 -6 3 7 2 16 -1 19 -3 4 -6 -2 -5 -13z"/>
<path d="M1031 1174 c0 -11 3 -14 6 -6 3 7 2 16 -1 19 -3 4 -6 -2 -5 -13z"/>
<path d="M1022 1130 c0 -14 2 -19 5 -12 2 6 2 18 0 25 -3 6 -5 1 -5 -13z"/>
<path d="M1012 1070 c0 -14 2 -19 5 -12 2 6 2 18 0 25 -3 6 -5 1 -5 -13z"/>
<path d="M1001 1014 c0 -11 3 -14 6 -6 3 7 2 16 -1 19 -3 4 -6 -2 -5 -13z"/>
<path d="M1408 1753 c6 -2 18 -2 25 0 6 3 1 5 -13 5 -14 0 -19 -2 -12 -5z"/>
<path d="M1426 1255 c-9 -26 -7 -32 5 -12 6 10 9 21 6 23 -2 3 -7 -2 -11 -11z"/>
<path d="M292 1735 c0 -16 2 -22 5 -12 2 9 2 23 0 30 -3 6 -5 -1 -5 -18z"/>
<path d="M283 1665 c0 -22 2 -30 4 -17 2 12 2 30 0 40 -3 9 -5 -1 -4 -23z"/>
<path d="M273 1560 c0 -25 2 -35 4 -22 2 12 2 32 0 45 -2 12 -4 2 -4 -23z"/>
<path d="M262 1465 c0 -16 2 -22 5 -12 2 9 2 23 0 30 -3 6 -5 -1 -5 -18z"/>
<path d="M251 1404 c0 -11 3 -14 6 -6 3 7 2 16 -1 19 -3 4 -6 -2 -5 -13z"/>
<path d="M242 1350 c0 -14 2 -19 5 -12 2 6 2 18 0 25 -3 6 -5 1 -5 -13z"/>
<path d="M232 1300 c0 -14 2 -19 5 -12 2 6 2 18 0 25 -3 6 -5 1 -5 -13z"/>
<path d="M212 1228 c-7 -26 -11 -62 -11 -80 1 -23 6 -12 15 37 16 81 13 112
-4 43z"/>
<path d="M192 1090 c0 -14 2 -19 5 -12 2 6 2 18 0 25 -3 6 -5 1 -5 -13z"/>
</g>
</svg>
